<?xml version="1.0" encoding="UTF-8" standalone="no"?>
<!DOCTYPE svg PUBLIC "-//W3C//DTD SVG 1.1//EN"
 "http://www.w3.org/Graphics/SVG/1.1/DTD/svg11.dtd">
<!-- Generated by graphviz version 3.0.0 (0)
 -->
<!-- Pages: 1 -->
<svg width="1012pt" height="308pt"
 viewBox="0.00 0.00 1012.00 308.00" xmlns="http://www.w3.org/2000/svg" xmlns:xlink="http://www.w3.org/1999/xlink">
<g id="graph0" class="graph" transform="scale(1 1) rotate(0) translate(4 304)">
<polygon fill="#ffffff" stroke="transparent" points="-4,4 -4,-304 1008,-304 1008,4 -4,4"/>
<!-- MOX -->
<g id="node1" class="node">
<title>MOX</title>
<polygon fill="#ffffff" stroke="black" points="61,-213 0,-213 0,-75 61,-75 61,-213"/>
<polygon fill="none" stroke="black" points="0.5,-190 0.5,-213 61.5,-213 61.5,-190 0.5,-190"/>
<text text-anchor="start" x="14.5" y="-197.8" font-family="arial" font-size="14.00">MOX</text>
<polygon fill="none" stroke="black" points="0.5,-167 0.5,-190 61.5,-190 61.5,-167 0.5,-167"/>
<text text-anchor="start" x="10" y="-174.8" font-family="arial" font-size="14.00">USB&#45;A</text>
<polygon fill="none" stroke="black" points="0.5,-144 0.5,-167 45.5,-167 45.5,-144 0.5,-144"/>
<text text-anchor="start" x="7.5" y="-151.8" font-family="arial" font-size="14.00">GND</text>
<polygon fill="none" stroke="black" points="45.5,-144 45.5,-167 61.5,-167 61.5,-144 45.5,-144"/>
<text text-anchor="start" x="49.5" y="-151.8" font-family="arial" font-size="14.00">1</text>
<polygon fill="none" stroke="black" points="0.5,-121 0.5,-144 45.5,-144 45.5,-121 0.5,-121"/>
<text text-anchor="start" x="8.5" y="-128.8" font-family="arial" font-size="14.00">VCC</text>
<polygon fill="none" stroke="black" points="45.5,-121 45.5,-144 61.5,-144 61.5,-121 45.5,-121"/>
<text text-anchor="start" x="49.5" y="-128.8" font-family="arial" font-size="14.00">2</text>
<polygon fill="none" stroke="black" points="0.5,-98 0.5,-121 45.5,-121 45.5,-98 0.5,-98"/>
<text text-anchor="start" x="4.5" y="-105.8" font-family="arial" font-size="14.00">Data+</text>
<polygon fill="none" stroke="black" points="45.5,-98 45.5,-121 61.5,-121 61.5,-98 45.5,-98"/>
<text text-anchor="start" x="49.5" y="-105.8" font-family="arial" font-size="14.00">3</text>
<polygon fill="none" stroke="black" points="0.5,-75 0.5,-98 45.5,-98 45.5,-75 0.5,-75"/>
<text text-anchor="start" x="6" y="-82.8" font-family="arial" font-size="14.00">Data&#45;</text>
<polygon fill="none" stroke="black" points="45.5,-75 45.5,-98 61.5,-98 61.5,-75 45.5,-75"/>
<text text-anchor="start" x="49.5" y="-82.8" font-family="arial" font-size="14.00">4</text>
</g>
<!-- GSW_1 -->
<g id="node6" class="node">
<title>GSW_1</title>
<polygon fill="#ffffff" stroke="transparent" points="162,-150 133,-150 133,-96 162,-96 162,-150"/>
<text text-anchor="start" x="138.72" y="-147.1" font-family="arial" font-size="1.00" fill="white"> </text>
<text text-anchor="start" x="136" y="-142.2" font-family="arial" font-size="1.00" fill="white">MOX:1:GND</text>
<text text-anchor="start" x="146.5" y="-142.2" font-family="arial" font-size="1.00" fill="white"> &#160;&#160;&#160;&#160;1:BK &#160;&#160;&#160;</text>
<text text-anchor="start" x="154" y="-142.2" font-family="arial" font-size="1.00" fill="white">USB:1:GND</text>
<polygon fill="#000000" stroke="transparent" points="133.5,-138 133.5,-140 162.5,-140 162.5,-138 133.5,-138"/>
<polygon fill="#000000" stroke="transparent" points="133.5,-136 133.5,-138 162.5,-138 162.5,-136 133.5,-136"/>
<polygon fill="#000000" stroke="transparent" points="133.5,-134 133.5,-136 162.5,-136 162.5,-134 133.5,-134"/>
<text text-anchor="start" x="136" y="-131.2" font-family="arial" font-size="1.00" fill="white">MOX:2:VCC</text>
<text text-anchor="start" x="146.5" y="-131.2" font-family="arial" font-size="1.00" fill="white"> &#160;&#160;&#160;&#160;2:RD &#160;&#160;&#160;</text>
<text text-anchor="start" x="154" y="-131.2" font-family="arial" font-size="1.00" fill="white">USB:2:VCC</text>
<polygon fill="#000000" stroke="transparent" points="133.5,-127 133.5,-129 162.5,-129 162.5,-127 133.5,-127"/>
<polygon fill="#ff0000" stroke="transparent" points="133.5,-125 133.5,-127 162.5,-127 162.5,-125 133.5,-125"/>
<polygon fill="#000000" stroke="transparent" points="133.5,-123 133.5,-125 162.5,-125 162.5,-123 133.5,-123"/>
<text text-anchor="start" x="135.5" y="-120.2" font-family="arial" font-size="1.00" fill="white">MOX:3:Data+</text>
<text text-anchor="start" x="146.5" y="-120.2" font-family="arial" font-size="1.00" fill="white"> &#160;&#160;&#160;&#160;3:WH &#160;&#160;&#160;</text>
<text text-anchor="start" x="154" y="-120.2" font-family="arial" font-size="1.00" fill="white">USB:4:Data&#45;</text>
<polygon fill="#000000" stroke="transparent" points="133.5,-116 133.5,-118 162.5,-118 162.5,-116 133.5,-116"/>
<polygon fill="#ffffff" stroke="transparent" points="133.5,-114 133.5,-116 162.5,-116 162.5,-114 133.5,-114"/>
<polygon fill="#000000" stroke="transparent" points="133.5,-112 133.5,-114 162.5,-114 162.5,-112 133.5,-112"/>
<text text-anchor="start" x="136" y="-109.2" font-family="arial" font-size="1.00" fill="white">MOX:4:Data&#45;</text>
<text text-anchor="start" x="146.5" y="-109.2" font-family="arial" font-size="1.00" fill="white"> &#160;&#160;&#160;&#160;4:GN &#160;&#160;&#160;</text>
<text text-anchor="start" x="153.5" y="-109.2" font-family="arial" font-size="1.00" fill="white">USB:3:Data+</text>
<polygon fill="#000000" stroke="transparent" points="133.5,-105 133.5,-107 162.5,-107 162.5,-105 133.5,-105"/>
<polygon fill="#00ff00" stroke="transparent" points="133.5,-103 133.5,-105 162.5,-105 162.5,-103 133.5,-103"/>
<polygon fill="#000000" stroke="transparent" points="133.5,-101 133.5,-103 162.5,-103 162.5,-101 133.5,-101"/>
<text text-anchor="start" x="138.72" y="-98.1" font-family="arial" font-size="1.00" fill="white"> </text>
</g>
<!-- MOX&#45;&#45;GSW_1 -->
<g id="edge1" class="edge">
<title>MOX:e&#45;&#45;GSW_1:w</title>
<path fill="none" stroke="#000000" stroke-width="2" d="M61,-154C92.18,-155.42 97.99,-136.42 133,-135"/>
<path fill="none" stroke="#000000" stroke-width="2" d="M61,-156C94.1,-156 99.9,-137 133,-137"/>
<path fill="none" stroke="#000000" stroke-width="2" d="M61,-158C96.01,-156.58 101.82,-137.58 133,-139"/>
</g>
<!-- MOX&#45;&#45;GSW_1 -->
<g id="edge3" class="edge">
<title>MOX:e&#45;&#45;GSW_1:w</title>
<path fill="none" stroke="#000000" stroke-width="2" d="M61,-130C91.89,-130.42 99.67,-124.42 133,-124"/>
<path fill="none" stroke="#ff0000" stroke-width="2" d="M61,-132C93.11,-132 100.89,-126 133,-126"/>
<path fill="none" stroke="#000000" stroke-width="2" d="M61,-134C94.33,-133.58 102.11,-127.58 133,-128"/>
</g>
<!-- MOX&#45;&#45;GSW_1 -->
<g id="edge5" class="edge">
<title>MOX:e&#45;&#45;GSW_1:w</title>
<path fill="none" stroke="#000000" stroke-width="2" d="M61,-107C94.33,-107.42 102.11,-113.42 133,-113"/>
<path fill="none" stroke="#ffffff" stroke-width="2" d="M61,-109C93.11,-109 100.89,-115 133,-115"/>
<path fill="none" stroke="#000000" stroke-width="2" d="M61,-111C91.89,-110.58 99.67,-116.58 133,-117"/>
</g>
<!-- MOX&#45;&#45;GSW_1 -->
<g id="edge7" class="edge">
<title>MOX:e&#45;&#45;GSW_1:w</title>
<path fill="none" stroke="#000000" stroke-width="2" d="M61,-84C95.88,-85.36 101.91,-103.36 133,-102"/>
<path fill="none" stroke="#00ff00" stroke-width="2" d="M61,-86C93.98,-86 100.02,-104 133,-104"/>
<path fill="none" stroke="#000000" stroke-width="2" d="M61,-88C92.09,-86.64 98.12,-104.64 133,-106"/>
</g>
<!-- USB -->
<g id="node2" class="node">
<title>USB</title>
<polygon fill="#ffffff" stroke="black" points="368,-207 234,-207 234,-23 368,-23 368,-207"/>
<polygon fill="none" stroke="black" points="234,-184 234,-207 368,-207 368,-184 234,-184"/>
<text text-anchor="start" x="287" y="-191.8" font-family="arial" font-size="14.00">USB</text>
<polygon fill="none" stroke="black" points="234,-161 234,-184 368,-184 368,-161 234,-161"/>
<text text-anchor="start" x="238" y="-168.8" font-family="arial" font-size="14.00">MLAB USB232R02A</text>
<polygon fill="none" stroke="black" points="234,-138 234,-161 269,-161 269,-138 234,-138"/>
<text text-anchor="start" x="247.5" y="-145.8" font-family="arial" font-size="14.00">1</text>
<polygon fill="none" stroke="black" points="269,-138 269,-161 333,-161 333,-138 269,-138"/>
<text text-anchor="start" x="285.5" y="-145.8" font-family="arial" font-size="14.00">GND</text>
<polygon fill="none" stroke="black" points="333,-138 333,-161 368,-161 368,-138 333,-138"/>
<text text-anchor="start" x="346.5" y="-145.8" font-family="arial" font-size="14.00">1</text>
<polygon fill="none" stroke="black" points="234,-115 234,-138 269,-138 269,-115 234,-115"/>
<text text-anchor="start" x="247.5" y="-122.8" font-family="arial" font-size="14.00">2</text>
<polygon fill="none" stroke="black" points="269,-115 269,-138 333,-138 333,-115 269,-115"/>
<text text-anchor="start" x="286.5" y="-122.8" font-family="arial" font-size="14.00">VCC</text>
<polygon fill="none" stroke="black" points="333,-115 333,-138 368,-138 368,-115 333,-115"/>
<text text-anchor="start" x="346.5" y="-122.8" font-family="arial" font-size="14.00">2</text>
<polygon fill="none" stroke="black" points="234,-92 234,-115 269,-115 269,-92 234,-92"/>
<text text-anchor="start" x="247.5" y="-99.8" font-family="arial" font-size="14.00">3</text>
<polygon fill="none" stroke="black" points="269,-92 269,-115 333,-115 333,-92 269,-92"/>
<text text-anchor="start" x="282.5" y="-99.8" font-family="arial" font-size="14.00">Data+</text>
<polygon fill="none" stroke="black" points="333,-92 333,-115 368,-115 368,-92 333,-92"/>
<text text-anchor="start" x="346.5" y="-99.8" font-family="arial" font-size="14.00">3</text>
<polygon fill="none" stroke="black" points="234,-69 234,-92 269,-92 269,-69 234,-69"/>
<text text-anchor="start" x="247.5" y="-76.8" font-family="arial" font-size="14.00">4</text>
<polygon fill="none" stroke="black" points="269,-69 269,-92 333,-92 333,-69 269,-69"/>
<text text-anchor="start" x="284" y="-76.8" font-family="arial" font-size="14.00">Data&#45;</text>
<polygon fill="none" stroke="black" points="333,-69 333,-92 368,-92 368,-69 333,-69"/>
<text text-anchor="start" x="346.5" y="-76.8" font-family="arial" font-size="14.00">4</text>
<polygon fill="none" stroke="black" points="234,-46 234,-69 269,-69 269,-46 234,-46"/>
<text text-anchor="start" x="247.5" y="-53.8" font-family="arial" font-size="14.00">5</text>
<polygon fill="none" stroke="black" points="269,-46 269,-69 333,-69 333,-46 269,-46"/>
<text text-anchor="start" x="287.5" y="-53.8" font-family="arial" font-size="14.00">RxD</text>
<polygon fill="none" stroke="black" points="333,-46 333,-69 368,-69 368,-46 333,-46"/>
<text text-anchor="start" x="346.5" y="-53.8" font-family="arial" font-size="14.00">5</text>
<polygon fill="none" stroke="black" points="234,-23 234,-46 269,-46 269,-23 234,-23"/>
<text text-anchor="start" x="247.5" y="-30.8" font-family="arial" font-size="14.00">6</text>
<polygon fill="none" stroke="black" points="269,-23 269,-46 333,-46 333,-23 269,-23"/>
<text text-anchor="start" x="288.5" y="-30.8" font-family="arial" font-size="14.00">TxD</text>
<polygon fill="none" stroke="black" points="333,-23 333,-46 368,-46 368,-23 333,-23"/>
<text text-anchor="start" x="346.5" y="-30.8" font-family="arial" font-size="14.00">6</text>
</g>
<!-- GSW_2 -->
<g id="node7" class="node">
<title>GSW_2</title>
<polygon fill="#ffffff" stroke="transparent" points="468,-121 440,-121 440,-67 468,-67 468,-121"/>
<text text-anchor="start" x="444.72" y="-118.1" font-family="arial" font-size="1.00" fill="white"> </text>
<text text-anchor="start" x="442" y="-113.2" font-family="arial" font-size="1.00" fill="white">USB:1:GND</text>
<text text-anchor="start" x="452" y="-113.2" font-family="arial" font-size="1.00" fill="white"> &#160;&#160;&#160;&#160;1:BK &#160;&#160;&#160;</text>
<text text-anchor="start" x="459" y="-113.2" font-family="arial" font-size="1.00" fill="white">RS232:1:GND</text>
<polygon fill="#000000" stroke="transparent" points="440,-109 440,-111 468,-111 468,-109 440,-109"/>
<polygon fill="#000000" stroke="transparent" points="440,-107 440,-109 468,-109 468,-107 440,-107"/>
<polygon fill="#000000" stroke="transparent" points="440,-105 440,-107 468,-107 468,-105 440,-105"/>
<text text-anchor="start" x="442" y="-102.2" font-family="arial" font-size="1.00" fill="white">USB:2:VCC</text>
<text text-anchor="start" x="452" y="-102.2" font-family="arial" font-size="1.00" fill="white"> &#160;&#160;&#160;&#160;2:RD &#160;&#160;&#160;</text>
<text text-anchor="start" x="459" y="-102.2" font-family="arial" font-size="1.00" fill="white">RS232:2:VCC</text>
<polygon fill="#000000" stroke="transparent" points="440,-98 440,-100 468,-100 468,-98 440,-98"/>
<polygon fill="#ff0000" stroke="transparent" points="440,-96 440,-98 468,-98 468,-96 440,-96"/>
<polygon fill="#000000" stroke="transparent" points="440,-94 440,-96 468,-96 468,-94 440,-94"/>
<text text-anchor="start" x="442" y="-91.2" font-family="arial" font-size="1.00" fill="white">USB:5:RxD</text>
<text text-anchor="start" x="452" y="-91.2" font-family="arial" font-size="1.00" fill="white"> &#160;&#160;&#160;&#160;3:YE &#160;&#160;&#160;</text>
<text text-anchor="start" x="459" y="-91.2" font-family="arial" font-size="1.00" fill="white">RS232:3:RxD</text>
<polygon fill="#000000" stroke="transparent" points="440,-87 440,-89 468,-89 468,-87 440,-87"/>
<polygon fill="#ffff00" stroke="transparent" points="440,-85 440,-87 468,-87 468,-85 440,-85"/>
<polygon fill="#000000" stroke="transparent" points="440,-83 440,-85 468,-85 468,-83 440,-83"/>
<text text-anchor="start" x="442" y="-80.2" font-family="arial" font-size="1.00" fill="white">USB:6:TxD</text>
<text text-anchor="start" x="452" y="-80.2" font-family="arial" font-size="1.00" fill="white"> &#160;&#160;&#160;&#160;4:GN &#160;&#160;&#160;</text>
<text text-anchor="start" x="459" y="-80.2" font-family="arial" font-size="1.00" fill="white">RS232:4:TxD</text>
<polygon fill="#000000" stroke="transparent" points="440,-76 440,-78 468,-78 468,-76 440,-76"/>
<polygon fill="#00ff00" stroke="transparent" points="440,-74 440,-76 468,-76 468,-74 440,-74"/>
<polygon fill="#000000" stroke="transparent" points="440,-72 440,-74 468,-74 468,-72 440,-72"/>
<text text-anchor="start" x="444.72" y="-69.1" font-family="arial" font-size="1.00" fill="white"> </text>
</g>
<!-- USB&#45;&#45;GSW_2 -->
<g id="edge9" class="edge">
<title>USB:e&#45;&#45;GSW_2:w</title>
<path fill="none" stroke="#000000" stroke-width="2" d="M368,-148C403.05,-150.1 400.96,-108.1 440,-106"/>
<path fill="none" stroke="#000000" stroke-width="2" d="M368,-150C405.05,-150 402.95,-108 440,-108"/>
<path fill="none" stroke="#000000" stroke-width="2" d="M368,-152C407.04,-149.9 404.95,-107.9 440,-110"/>
</g>
<!-- USB&#45;&#45;GSW_2 -->
<g id="edge11" class="edge">
<title>USB:e&#45;&#45;GSW_2:w</title>
<path fill="none" stroke="#000000" stroke-width="2" d="M368,-125C400.67,-126.82 403.34,-96.82 440,-95"/>
<path fill="none" stroke="#ff0000" stroke-width="2" d="M368,-127C402.67,-127 405.33,-97 440,-97"/>
<path fill="none" stroke="#000000" stroke-width="2" d="M368,-129C404.66,-127.18 407.33,-97.18 440,-99"/>
</g>
<!-- USB&#45;&#45;GSW_2 -->
<g id="edge13" class="edge">
<title>USB:e&#45;&#45;GSW_2:w</title>
<path fill="none" stroke="#000000" stroke-width="2" d="M368,-55C404.49,-56.79 407.49,-85.79 440,-84"/>
<path fill="none" stroke="#ffff00" stroke-width="2" d="M368,-57C402.5,-57 405.5,-86 440,-86"/>
<path fill="none" stroke="#000000" stroke-width="2" d="M368,-59C400.51,-57.21 403.51,-86.21 440,-88"/>
</g>
<!-- USB&#45;&#45;GSW_2 -->
<g id="edge15" class="edge">
<title>USB:e&#45;&#45;GSW_2:w</title>
<path fill="none" stroke="#000000" stroke-width="2" d="M368,-32C406.82,-34.08 405.17,-75.08 440,-73"/>
<path fill="none" stroke="#00ff00" stroke-width="2" d="M368,-34C404.82,-34 403.18,-75 440,-75"/>
<path fill="none" stroke="#000000" stroke-width="2" d="M368,-36C402.83,-33.92 401.18,-74.92 440,-77"/>
</g>
<!-- RS232 -->
<g id="node3" class="node">
<title>RS232</title>
<polygon fill="#ffffff" stroke="black" points="705,-184 540,-184 540,0 705,0 705,-184"/>
<polygon fill="none" stroke="black" points="540.5,-161 540.5,-184 705.5,-184 705.5,-161 540.5,-161"/>
<text text-anchor="start" x="602" y="-168.8" font-family="arial" font-size="14.00">RS232</text>
<polygon fill="none" stroke="black" points="540.5,-138 540.5,-161 705.5,-161 705.5,-138 540.5,-138"/>
<text text-anchor="start" x="544.5" y="-145.8" font-family="arial" font-size="14.00">MLAB RS232SINGLE01A</text>
<polygon fill="none" stroke="black" points="540.5,-115 540.5,-138 588.5,-138 588.5,-115 540.5,-115"/>
<text text-anchor="start" x="560.5" y="-122.8" font-family="arial" font-size="14.00">1</text>
<polygon fill="none" stroke="black" points="588.5,-115 588.5,-138 658.5,-138 658.5,-115 588.5,-115"/>
<text text-anchor="start" x="608" y="-122.8" font-family="arial" font-size="14.00">GND</text>
<polygon fill="none" stroke="black" points="658.5,-115 658.5,-138 705.5,-138 705.5,-115 658.5,-115"/>
<text text-anchor="start" x="678" y="-122.8" font-family="arial" font-size="14.00">1</text>
<polygon fill="none" stroke="black" points="540.5,-92 540.5,-115 588.5,-115 588.5,-92 540.5,-92"/>
<text text-anchor="start" x="560.5" y="-99.8" font-family="arial" font-size="14.00">2</text>
<polygon fill="none" stroke="black" points="588.5,-92 588.5,-115 658.5,-115 658.5,-92 588.5,-92"/>
<text text-anchor="start" x="609" y="-99.8" font-family="arial" font-size="14.00">VCC</text>
<polygon fill="none" stroke="black" points="658.5,-92 658.5,-115 705.5,-115 705.5,-92 658.5,-92"/>
<text text-anchor="start" x="678" y="-99.8" font-family="arial" font-size="14.00">2</text>
<polygon fill="none" stroke="black" points="540.5,-69 540.5,-92 588.5,-92 588.5,-69 540.5,-69"/>
<text text-anchor="start" x="560.5" y="-76.8" font-family="arial" font-size="14.00">3</text>
<polygon fill="none" stroke="black" points="588.5,-69 588.5,-92 658.5,-92 658.5,-69 588.5,-69"/>
<text text-anchor="start" x="610" y="-76.8" font-family="arial" font-size="14.00">RxD</text>
<polygon fill="none" stroke="black" points="658.5,-69 658.5,-92 705.5,-92 705.5,-69 658.5,-69"/>
<text text-anchor="start" x="678" y="-76.8" font-family="arial" font-size="14.00">3</text>
<polygon fill="none" stroke="black" points="540.5,-46 540.5,-69 588.5,-69 588.5,-46 540.5,-46"/>
<text text-anchor="start" x="560.5" y="-53.8" font-family="arial" font-size="14.00">4</text>
<polygon fill="none" stroke="black" points="588.5,-46 588.5,-69 658.5,-69 658.5,-46 588.5,-46"/>
<text text-anchor="start" x="611" y="-53.8" font-family="arial" font-size="14.00">TxD</text>
<polygon fill="none" stroke="black" points="658.5,-46 658.5,-69 705.5,-69 705.5,-46 658.5,-46"/>
<text text-anchor="start" x="678" y="-53.8" font-family="arial" font-size="14.00">4</text>
<polygon fill="none" stroke="black" points="540.5,-23 540.5,-46 588.5,-46 588.5,-23 540.5,-23"/>
<text text-anchor="start" x="560.5" y="-30.8" font-family="arial" font-size="14.00">5</text>
<polygon fill="none" stroke="black" points="588.5,-23 588.5,-46 658.5,-46 658.5,-23 588.5,-23"/>
<text text-anchor="start" x="610" y="-30.8" font-family="arial" font-size="14.00">RxD</text>
<polygon fill="none" stroke="black" points="658.5,-23 658.5,-46 705.5,-46 705.5,-23 658.5,-23"/>
<text text-anchor="start" x="678" y="-30.8" font-family="arial" font-size="14.00">5</text>
<polygon fill="none" stroke="black" points="540.5,0 540.5,-23 588.5,-23 588.5,0 540.5,0"/>
<text text-anchor="start" x="560.5" y="-7.8" font-family="arial" font-size="14.00">6</text>
<polygon fill="none" stroke="black" points="588.5,0 588.5,-23 658.5,-23 658.5,0 588.5,0"/>
<text text-anchor="start" x="611" y="-7.8" font-family="arial" font-size="14.00">TxD</text>
<polygon fill="none" stroke="black" points="658.5,0 658.5,-23 705.5,-23 705.5,0 658.5,0"/>
<text text-anchor="start" x="678" y="-7.8" font-family="arial" font-size="14.00">6</text>
</g>
<!-- GSW_3 -->
<g id="node8" class="node">
<title>GSW_3</title>
<polygon fill="#ffffff" stroke="transparent" points="813.5,-140.5 778.5,-140.5 778.5,-97.5 813.5,-97.5 813.5,-140.5"/>
<text text-anchor="start" x="784.22" y="-137.1" font-family="arial" font-size="1.00" fill="white"> </text>
<text text-anchor="start" x="781" y="-132.2" font-family="arial" font-size="1.00" fill="white">RS232:1:GND</text>
<text text-anchor="start" x="792" y="-132.2" font-family="arial" font-size="1.00" fill="white"> &#160;&#160;&#160;&#160;1:BK &#160;&#160;&#160;</text>
<text text-anchor="start" x="799" y="-132.2" font-family="arial" font-size="1.00" fill="white">Power_Connector:1:GND</text>
<polygon fill="#000000" stroke="transparent" points="779,-128 779,-130 814,-130 814,-128 779,-128"/>
<polygon fill="#000000" stroke="transparent" points="779,-126 779,-128 814,-128 814,-126 779,-126"/>
<polygon fill="#000000" stroke="transparent" points="779,-124 779,-126 814,-126 814,-124 779,-124"/>
<text text-anchor="start" x="781" y="-121.2" font-family="arial" font-size="1.00" fill="white">RS232:5:RxD</text>
<text text-anchor="start" x="792" y="-121.2" font-family="arial" font-size="1.00" fill="white"> &#160;&#160;&#160;&#160;2:YE &#160;&#160;&#160;</text>
<text text-anchor="start" x="799" y="-121.2" font-family="arial" font-size="1.00" fill="white">Power_Connector:3:RxD</text>
<polygon fill="#000000" stroke="transparent" points="779,-117 779,-119 814,-119 814,-117 779,-117"/>
<polygon fill="#ffff00" stroke="transparent" points="779,-115 779,-117 814,-117 814,-115 779,-115"/>
<polygon fill="#000000" stroke="transparent" points="779,-113 779,-115 814,-115 814,-113 779,-113"/>
<text text-anchor="start" x="781" y="-110.2" font-family="arial" font-size="1.00" fill="white">RS232:6:TxD</text>
<text text-anchor="start" x="792" y="-110.2" font-family="arial" font-size="1.00" fill="white"> &#160;&#160;&#160;&#160;3:GN &#160;&#160;&#160;</text>
<text text-anchor="start" x="799" y="-110.2" font-family="arial" font-size="1.00" fill="white">Power_Connector:4:TxD</text>
<polygon fill="#000000" stroke="transparent" points="779,-106 779,-108 814,-108 814,-106 779,-106"/>
<polygon fill="#00ff00" stroke="transparent" points="779,-104 779,-106 814,-106 814,-104 779,-104"/>
<polygon fill="#000000" stroke="transparent" points="779,-102 779,-104 814,-104 814,-102 779,-102"/>
<text text-anchor="start" x="784.22" y="-99.1" font-family="arial" font-size="1.00" fill="white"> </text>
</g>
<!-- RS232&#45;&#45;GSW_3 -->
<g id="edge17" class="edge">
<title>RS232:e&#45;&#45;GSW_3:w</title>
<path fill="none" stroke="#000000" stroke-width="2" d="M705,-125C737.44,-125 745.56,-125 778,-125"/>
<path fill="none" stroke="#000000" stroke-width="2" d="M705,-127C737.44,-127 745.56,-127 778,-127"/>
<path fill="none" stroke="#000000" stroke-width="2" d="M705,-129C737.44,-129 745.56,-129 778,-129"/>
</g>
<!-- RS232&#45;&#45;GSW_3 -->
<g id="edge19" class="edge">
<title>RS232:e&#45;&#45;GSW_3:w</title>
<path fill="none" stroke="#000000" stroke-width="2" d="M705,-32C755.71,-34.57 731.12,-116.57 778,-114"/>
<path fill="none" stroke="#ffff00" stroke-width="2" d="M705,-34C753.79,-34 729.21,-116 778,-116"/>
<path fill="none" stroke="#000000" stroke-width="2" d="M705,-36C751.88,-33.43 727.29,-115.43 778,-118"/>
</g>
<!-- RS232&#45;&#45;GSW_3 -->
<g id="edge21" class="edge">
<title>RS232:e&#45;&#45;GSW_3:w</title>
<path fill="none" stroke="#000000" stroke-width="2" d="M705,-9C759.78,-11.66 726.99,-105.66 778,-103"/>
<path fill="none" stroke="#00ff00" stroke-width="2" d="M705,-11C757.9,-11 725.1,-105 778,-105"/>
<path fill="none" stroke="#000000" stroke-width="2" d="M705,-13C756.01,-10.34 723.22,-104.34 778,-107"/>
</g>
<!-- Power_Connector -->
<g id="node4" class="node">
<title>Power_Connector</title>
<polygon fill="#ffffff" stroke="black" points="1004,-232 887,-232 887,-94 1004,-94 1004,-232"/>
<polygon fill="none" stroke="black" points="887.5,-209 887.5,-232 1004.5,-232 1004.5,-209 887.5,-209"/>
<text text-anchor="start" x="891.5" y="-216.8" font-family="arial" font-size="14.00">Power_Connector</text>
<polygon fill="none" stroke="black" points="887.5,-186 887.5,-209 1004.5,-209 1004.5,-186 887.5,-186"/>
<text text-anchor="start" x="933.5" y="-193.8" font-family="arial" font-size="14.00">20A</text>
<polygon fill="none" stroke="black" points="887.5,-163 887.5,-186 934.5,-186 934.5,-163 887.5,-163"/>
<text text-anchor="start" x="907" y="-170.8" font-family="arial" font-size="14.00">1</text>
<polygon fill="none" stroke="black" points="934.5,-163 934.5,-186 1004.5,-186 1004.5,-163 934.5,-163"/>
<text text-anchor="start" x="954" y="-170.8" font-family="arial" font-size="14.00">GND</text>
<polygon fill="none" stroke="black" points="887.5,-140 887.5,-163 934.5,-163 934.5,-140 887.5,-140"/>
<text text-anchor="start" x="907" y="-147.8" font-family="arial" font-size="14.00">2</text>
<polygon fill="none" stroke="black" points="934.5,-140 934.5,-163 1004.5,-163 1004.5,-140 934.5,-140"/>
<text text-anchor="start" x="958.5" y="-147.8" font-family="arial" font-size="14.00">12v</text>
<polygon fill="none" stroke="black" points="887.5,-117 887.5,-140 934.5,-140 934.5,-117 887.5,-117"/>
<text text-anchor="start" x="907" y="-124.8" font-family="arial" font-size="14.00">3</text>
<polygon fill="none" stroke="black" points="934.5,-117 934.5,-140 1004.5,-140 1004.5,-117 934.5,-117"/>
<text text-anchor="start" x="956" y="-124.8" font-family="arial" font-size="14.00">RxD</text>
<polygon fill="none" stroke="black" points="887.5,-94 887.5,-117 934.5,-117 934.5,-94 887.5,-94"/>
<text text-anchor="start" x="907" y="-101.8" font-family="arial" font-size="14.00">4</text>
<polygon fill="none" stroke="black" points="934.5,-94 934.5,-117 1004.5,-117 1004.5,-94 934.5,-94"/>
<text text-anchor="start" x="957" y="-101.8" font-family="arial" font-size="14.00">TxD</text>
</g>
<!-- Main_Power -->
<g id="node5" class="node">
<title>Main_Power</title>
<polygon fill="#ffffff" stroke="black" points="693.5,-300 551.5,-300 551.5,-208 693.5,-208 693.5,-300"/>
<polygon fill="none" stroke="black" points="551.5,-277 551.5,-300 693.5,-300 693.5,-277 551.5,-277"/>
<text text-anchor="start" x="584.5" y="-284.8" font-family="arial" font-size="14.00">Main_Power</text>
<polygon fill="none" stroke="black" points="551.5,-254 551.5,-277 693.5,-277 693.5,-254 551.5,-254"/>
<text text-anchor="start" x="555.5" y="-261.8" font-family="arial" font-size="14.00">Ground Station Power</text>
<polygon fill="none" stroke="black" points="551.5,-231 551.5,-254 634.5,-254 634.5,-231 551.5,-231"/>
<text text-anchor="start" x="577.5" y="-238.8" font-family="arial" font-size="14.00">GND</text>
<polygon fill="none" stroke="black" points="634.5,-231 634.5,-254 693.5,-254 693.5,-231 634.5,-231"/>
<text text-anchor="start" x="660" y="-238.8" font-family="arial" font-size="14.00">1</text>
<polygon fill="none" stroke="black" points="551.5,-208 551.5,-231 634.5,-231 634.5,-208 551.5,-208"/>
<text text-anchor="start" x="582" y="-215.8" font-family="arial" font-size="14.00">12v</text>
<polygon fill="none" stroke="black" points="634.5,-208 634.5,-231 693.5,-231 693.5,-208 634.5,-208"/>
<text text-anchor="start" x="660" y="-215.8" font-family="arial" font-size="14.00">2</text>
</g>
<!-- GSW_4 -->
<g id="node9" class="node">
<title>GSW_4</title>
<polygon fill="#ffffff" stroke="transparent" points="815,-220 777,-220 777,-188 815,-188 815,-220"/>
<text text-anchor="start" x="783.72" y="-217.1" font-family="arial" font-size="1.00" fill="white"> </text>
<text text-anchor="start" x="779" y="-212.2" font-family="arial" font-size="1.00" fill="white">Main_Power:1:GND</text>
<text text-anchor="start" x="793" y="-212.2" font-family="arial" font-size="1.00" fill="white"> &#160;&#160;&#160;&#160;1:BK &#160;&#160;&#160;</text>
<text text-anchor="start" x="800" y="-212.2" font-family="arial" font-size="1.00" fill="white">Power_Connector:1:GND</text>
<polygon fill="#000000" stroke="transparent" points="777,-208 777,-210 815,-210 815,-208 777,-208"/>
<polygon fill="#000000" stroke="transparent" points="777,-206 777,-208 815,-208 815,-206 777,-206"/>
<polygon fill="#000000" stroke="transparent" points="777,-204 777,-206 815,-206 815,-204 777,-204"/>
<text text-anchor="start" x="779" y="-201.2" font-family="arial" font-size="1.00" fill="white">Main_Power:2:12v</text>
<text text-anchor="start" x="793" y="-201.2" font-family="arial" font-size="1.00" fill="white"> &#160;&#160;&#160;&#160;2:RD &#160;&#160;&#160;</text>
<text text-anchor="start" x="800" y="-201.2" font-family="arial" font-size="1.00" fill="white">Power_Connector:2:12v</text>
<polygon fill="#000000" stroke="transparent" points="777,-197 777,-199 815,-199 815,-197 777,-197"/>
<polygon fill="#ff0000" stroke="transparent" points="777,-195 777,-197 815,-197 815,-195 777,-195"/>
<polygon fill="#000000" stroke="transparent" points="777,-193 777,-195 815,-195 815,-193 777,-193"/>
<text text-anchor="start" x="783.72" y="-190.1" font-family="arial" font-size="1.00" fill="white"> </text>
</g>
<!-- Main_Power&#45;&#45;GSW_4 -->
<g id="edge23" class="edge">
<title>Main_Power:e&#45;&#45;GSW_4:w</title>
<path fill="none" stroke="#000000" stroke-width="2" d="M694.5,-240C732.34,-241.84 735.18,-206.84 777,-205"/>
<path fill="none" stroke="#000000" stroke-width="2" d="M694.5,-242C734.33,-242 737.17,-207 777,-207"/>
<path fill="none" stroke="#000000" stroke-width="2" d="M694.5,-244C736.32,-242.16 739.16,-207.16 777,-209"/>
</g>
<!-- Main_Power&#45;&#45;GSW_4 -->
<g id="edge25" class="edge">
<title>Main_Power:e&#45;&#45;GSW_4:w</title>
<path fill="none" stroke="#000000" stroke-width="2" d="M694.5,-217C730.64,-218.47 737.01,-195.47 777,-194"/>
<path fill="none" stroke="#ff0000" stroke-width="2" d="M694.5,-219C732.56,-219 738.94,-196 777,-196"/>
<path fill="none" stroke="#000000" stroke-width="2" d="M694.5,-221C734.49,-219.53 740.86,-196.53 777,-198"/>
</g>
<!-- GSW_1&#45;&#45;USB -->
<g id="edge2" class="edge">
<title>GSW_1:e&#45;&#45;USB:w</title>
<path fill="none" stroke="#000000" stroke-width="2" d="M162,-135C196.28,-136.06 203.25,-149.06 234,-148"/>
<path fill="none" stroke="#000000" stroke-width="2" d="M162,-137C194.52,-137 201.48,-150 234,-150"/>
<path fill="none" stroke="#000000" stroke-width="2" d="M162,-139C192.75,-137.94 199.72,-150.94 234,-152"/>
</g>
<!-- GSW_1&#45;&#45;USB -->
<g id="edge4" class="edge">
<title>GSW_1:e&#45;&#45;USB:w</title>
<path fill="none" stroke="#000000" stroke-width="2" d="M162,-124C194.25,-124.02 202.25,-125.02 234,-125"/>
<path fill="none" stroke="#ff0000" stroke-width="2" d="M162,-126C194,-126 202,-127 234,-127"/>
<path fill="none" stroke="#000000" stroke-width="2" d="M162,-128C193.75,-127.98 201.75,-128.98 234,-129"/>
</g>
<!-- GSW_1&#45;&#45;USB -->
<g id="edge6" class="edge">
<title>GSW_1:e&#45;&#45;USB:w</title>
<path fill="none" stroke="#000000" stroke-width="2" d="M162,-113C195.58,-114.95 196.42,-79.95 234,-78"/>
<path fill="none" stroke="#ffffff" stroke-width="2" d="M162,-115C197.58,-115 198.42,-80 234,-80"/>
<path fill="none" stroke="#000000" stroke-width="2" d="M162,-117C199.58,-115.05 200.42,-80.05 234,-82"/>
</g>
<!-- GSW_1&#45;&#45;USB -->
<g id="edge8" class="edge">
<title>GSW_1:e&#45;&#45;USB:w</title>
<path fill="none" stroke="#000000" stroke-width="2" d="M162,-102C193.75,-102.02 201.75,-101.02 234,-101"/>
<path fill="none" stroke="#00ff00" stroke-width="2" d="M162,-104C194,-104 202,-103 234,-103"/>
<path fill="none" stroke="#000000" stroke-width="2" d="M162,-106C194.25,-105.98 202.25,-104.98 234,-105"/>
</g>
<!-- GSW_2&#45;&#45;RS232 -->
<g id="edge10" class="edge">
<title>GSW_2:e&#45;&#45;RS232:w</title>
<path fill="none" stroke="#000000" stroke-width="2" d="M468,-106C503.01,-107.42 508.82,-126.42 540,-125"/>
<path fill="none" stroke="#000000" stroke-width="2" d="M468,-108C501.1,-108 506.9,-127 540,-127"/>
<path fill="none" stroke="#000000" stroke-width="2" d="M468,-110C499.18,-108.58 504.99,-127.58 540,-129"/>
</g>
<!-- GSW_2&#45;&#45;RS232 -->
<g id="edge12" class="edge">
<title>GSW_2:e&#45;&#45;RS232:w</title>
<path fill="none" stroke="#000000" stroke-width="2" d="M468,-95C501.5,-95.52 509.19,-102.52 540,-102"/>
<path fill="none" stroke="#ff0000" stroke-width="2" d="M468,-97C500.15,-97 507.85,-104 540,-104"/>
<path fill="none" stroke="#000000" stroke-width="2" d="M468,-99C498.81,-98.48 506.5,-105.48 540,-106"/>
</g>
<!-- GSW_2&#45;&#45;RS232 -->
<g id="edge14" class="edge">
<title>GSW_2:e&#45;&#45;RS232:w</title>
<path fill="none" stroke="#000000" stroke-width="2" d="M468,-84C498.89,-84.42 506.67,-78.42 540,-78"/>
<path fill="none" stroke="#ffff00" stroke-width="2" d="M468,-86C500.11,-86 507.89,-80 540,-80"/>
<path fill="none" stroke="#000000" stroke-width="2" d="M468,-88C501.33,-87.58 509.11,-81.58 540,-82"/>
</g>
<!-- GSW_2&#45;&#45;RS232 -->
<g id="edge16" class="edge">
<title>GSW_2:e&#45;&#45;RS232:w</title>
<path fill="none" stroke="#000000" stroke-width="2" d="M468,-73C499.09,-74.36 505.12,-56.36 540,-55"/>
<path fill="none" stroke="#00ff00" stroke-width="2" d="M468,-75C500.98,-75 507.02,-57 540,-57"/>
<path fill="none" stroke="#000000" stroke-width="2" d="M468,-77C502.88,-75.64 508.91,-57.64 540,-59"/>
</g>
<!-- GSW_3&#45;&#45;Power_Connector -->
<g id="edge18" class="edge">
<title>GSW_3:e&#45;&#45;Power_Connector:w</title>
<path fill="none" stroke="#000000" stroke-width="2" d="M815,-125C855.45,-127.2 850.53,-175.2 887,-173"/>
<path fill="none" stroke="#000000" stroke-width="2" d="M815,-127C853.46,-127 848.54,-175 887,-175"/>
<path fill="none" stroke="#000000" stroke-width="2" d="M815,-129C851.47,-126.8 846.55,-174.8 887,-177"/>
</g>
<!-- GSW_3&#45;&#45;Power_Connector -->
<g id="edge20" class="edge">
<title>GSW_3:e&#45;&#45;Power_Connector:w</title>
<path fill="none" stroke="#000000" stroke-width="2" d="M815,-114C849.16,-114.98 856.28,-126.98 887,-126"/>
<path fill="none" stroke="#ffff00" stroke-width="2" d="M815,-116C847.44,-116 854.56,-128 887,-128"/>
<path fill="none" stroke="#000000" stroke-width="2" d="M815,-118C845.72,-117.02 852.84,-129.02 887,-130"/>
</g>
<!-- GSW_3&#45;&#45;Power_Connector -->
<g id="edge22" class="edge">
<title>GSW_3:e&#45;&#45;Power_Connector:w</title>
<path fill="none" stroke="#000000" stroke-width="2" d="M815,-103C847,-103 855,-103 887,-103"/>
<path fill="none" stroke="#00ff00" stroke-width="2" d="M815,-105C847,-105 855,-105 887,-105"/>
<path fill="none" stroke="#000000" stroke-width="2" d="M815,-107C847,-107 855,-107 887,-107"/>
</g>
<!-- GSW_4&#45;&#45;Power_Connector -->
<g id="edge24" class="edge">
<title>GSW_4:e&#45;&#45;Power_Connector:w</title>
<path fill="none" stroke="#000000" stroke-width="2" d="M815,-205C848.02,-206.88 849.99,-174.88 887,-173"/>
<path fill="none" stroke="#000000" stroke-width="2" d="M815,-207C850.02,-207 851.98,-175 887,-175"/>
<path fill="none" stroke="#000000" stroke-width="2" d="M815,-209C852.01,-207.12 853.98,-175.12 887,-177"/>
</g>
<!-- GSW_4&#45;&#45;Power_Connector -->
<g id="edge26" class="edge">
<title>GSW_4:e&#45;&#45;Power_Connector:w</title>
<path fill="none" stroke="#000000" stroke-width="2" d="M815,-194C850.74,-196.15 847.27,-151.15 887,-149"/>
<path fill="none" stroke="#ff0000" stroke-width="2" d="M815,-196C852.74,-196 849.26,-151 887,-151"/>
<path fill="none" stroke="#000000" stroke-width="2" d="M815,-198C854.73,-195.85 851.26,-150.85 887,-153"/>
</g>
</g>
</svg>
